<svg width="24" height="24" viewBox="0 0 24 24" fill="none" xmlns="http://www.w3.org/2000/svg">
<path d="M18.4697 16.4697C18.7359 16.2034 19.1526 16.1792 19.4462 16.3971L19.5303 16.4697L21.5303 18.4697C21.7966 18.7359 21.8208 19.1526 21.603 19.4462L21.5303 19.5303L19.5303 21.5303C19.2374 21.8232 18.7626 21.8232 18.4697 21.5303C18.2034 21.2641 18.1792 20.8474 18.3971 20.5538L18.4697 20.4697L19.939 19L18.4697 17.5303C18.2034 17.2641 18.1792 16.8474 18.3971 16.5538L18.4697 16.4697Z" fill="currentColor"/>
<path d="M8.83301 2.25C9.2127 2.25 9.5265 2.53215 9.57616 2.89823L9.58301 3V7C9.58301 7.91817 8.8759 8.67119 7.97653 8.7442L7.83301 8.75H3.83301C3.41879 8.75 3.08301 8.41421 3.08301 8C3.08301 7.6203 3.36516 7.30651 3.73124 7.25685L3.83301 7.25H7.83301C7.95135 7.25 8.05049 7.16777 8.07641 7.05732L8.08301 7V3C8.08301 2.58579 8.41879 2.25 8.83301 2.25Z" fill="currentColor"/>
<path d="M16.833 2.25C18.2955 2.25 19.4914 3.3917 19.578 4.83248L19.583 5V13C19.583 13.4142 19.2472 13.75 18.833 13.75C18.4533 13.75 18.1395 13.4678 18.0899 13.1018L18.083 13V5C18.083 4.35279 17.5911 3.82047 16.9608 3.75645L16.833 3.75H8.66101C8.37704 3.75 8.10294 3.8468 7.88274 4.02218L7.77734 4.11633L4.94926 6.94441C4.74826 7.14535 4.62275 7.40759 4.59099 7.68704L4.58301 7.828V19C4.58301 19.6472 5.07488 20.1795 5.7052 20.2435L5.83301 20.25H11C11.4142 20.25 11.75 20.5858 11.75 21C11.75 21.3797 11.4679 21.6935 11.1018 21.7432L11 21.75H5.83301C4.37048 21.75 3.1746 20.6083 3.08803 19.1675L3.08301 19V7.828C3.08301 7.16502 3.3226 6.52669 3.75366 6.02873L3.88868 5.88367L6.7166 3.05575C7.1854 2.5868 7.80607 2.30458 8.46297 2.25714L8.66101 2.25H16.833Z" fill="currentColor"/>
<path d="M15.4697 16.4697C15.7626 16.1768 16.2374 16.1768 16.5303 16.4697C16.7966 16.7359 16.8208 17.1526 16.603 17.4462L16.5303 17.5303L15.061 19L16.5303 20.4697C16.7966 20.7359 16.8208 21.1526 16.603 21.4462L16.5303 21.5303C16.2641 21.7966 15.8474 21.8208 15.5538 21.6029L15.4697 21.5303L13.4697 19.5303C13.2034 19.2641 13.1792 18.8474 13.3971 18.5538L13.4697 18.4697L15.4697 16.4697Z" fill="currentColor"/>
</svg>
