<svg width="24" height="24" viewBox="0 0 24 24" fill="none" xmlns="http://www.w3.org/2000/svg">
<path d="M20.3453 6.32034C20.7041 6.11337 21.1627 6.23646 21.3697 6.59526C21.5594 6.92416 21.4718 7.33695 21.1795 7.56289L21.0947 7.61967L3.65475 17.6797C3.29595 17.8866 2.8373 17.7636 2.63034 17.4048C2.44062 17.0759 2.52823 16.6631 2.82052 16.4371L2.90525 16.3803L20.3453 6.32034Z" fill="currentColor"/>
<path d="M12 1.2C12.3797 1.2 12.6935 1.48216 12.7432 1.84823L12.75 1.95V22.05C12.75 22.4642 12.4142 22.8 12 22.8C11.6203 22.8 11.3065 22.5179 11.2568 22.1518L11.25 22.05V1.95C11.25 1.53579 11.5858 1.2 12 1.2Z" fill="currentColor"/>
<path d="M2.63034 6.59526C2.82006 6.26636 3.22126 6.13552 3.56317 6.27542L3.65475 6.32034L12.3747 11.3503C12.7335 11.5573 12.8566 12.016 12.6497 12.3748C12.4599 12.7037 12.0587 12.8345 11.7168 12.6946L11.6253 12.6497L2.90525 7.61967C2.54645 7.4127 2.42337 6.95406 2.63034 6.59526Z" fill="currentColor"/>
<path fill-rule="evenodd" clip-rule="evenodd" d="M3.62451 5.57677L10.6253 1.53631C11.4762 1.04557 12.5238 1.04557 13.375 1.53647L20.3747 5.57731C21.2259 6.06826 21.75 6.97596 21.75 7.959V16.041C21.75 17.0237 21.2263 17.9312 20.375 18.4235L13.3747 22.4647C12.5238 22.9554 11.4762 22.9554 10.625 22.4645L3.6253 18.4237C2.77405 17.9328 2.25 17.025 2.25 16.042V7.959C2.25 6.9763 2.7737 6.06884 3.62451 5.57677ZM19.625 6.87654L12.6253 2.8357C12.2382 2.61244 11.7618 2.61244 11.3749 2.83558L4.3749 6.87558C3.98813 7.09927 3.75 7.51191 3.75 7.959V16.042C3.75 16.489 3.98801 16.9013 4.37497 17.1245L11.3747 21.1653C11.7618 21.3886 12.2382 21.3886 12.625 21.1655L19.6245 17.1248C20.0119 16.9007 20.25 16.4881 20.25 16.041V7.959C20.25 7.51197 20.012 7.09971 19.625 6.87654Z" fill="currentColor"/>
</svg>
