<svg width="24" height="24" viewBox="0 0 24 24" fill="none" xmlns="http://www.w3.org/2000/svg">
<path fill-rule="evenodd" clip-rule="evenodd" d="M4.8617 5.38742C6.73389 3.36562 9.39141 2.25 12 2.25C14.6086 2.25 17.2661 3.36562 19.1385 5.38768C20.7938 7.17692 21.75 9.51232 21.75 12.185C21.75 14.3005 21.0423 16.3882 19.8279 18.0138C18.6586 19.5791 17.0174 20.6674 15.2832 21.3745C14.7899 21.5756 14.25 21.2127 14.25 20.68L14.25 19.9561L14.249 19.8842L14.2373 19.6881L14.2097 19.4353L14.1889 19.2902C14.1122 18.7962 13.9732 18.305 13.7597 17.8539C13.6813 17.6882 13.5939 17.5305 13.4973 17.3819C13.1855 16.9026 13.5033 16.2647 14.0737 16.2248C15.7148 16.1101 17.019 14.6203 17.019 12.782C17.019 12.1989 16.7996 11.6288 16.3771 11.1069C16.2733 10.9788 16.2147 10.82 16.2103 10.6552L16.159 8.762L14.1219 9.49934C14.0167 9.53739 13.9047 9.55123 13.7942 9.54046L13.6845 9.52146C13.1405 9.385 12.5748 9.314 12 9.314C11.426 9.314 10.86 9.38481 10.3143 9.52075C10.1699 9.55674 10.018 9.54893 9.87806 9.49834L7.84 8.761L7.78973 10.6552C7.78618 10.7872 7.74784 10.9154 7.67939 11.027L7.62248 11.1075C7.20009 11.6282 6.981 12.198 6.981 12.782C6.981 14.6203 8.28517 16.1101 9.92631 16.2248C10.4967 16.2647 10.8145 16.9026 10.5027 17.3819C9.94833 18.2343 9.75066 19.2375 9.74998 19.9563L9.75 20.68C9.75002 21.2127 9.21014 21.5756 8.71683 21.3745C6.98264 20.6674 5.34137 19.5791 4.17215 18.0139C2.95797 16.3885 2.25 14.2998 2.25 12.185C2.25 9.51232 3.20617 7.17692 4.8617 5.38742ZM18.0377 6.40658C16.4549 4.6973 14.1983 3.75 12 3.75C9.80165 3.75 7.5451 4.6973 5.96254 6.40632C4.55836 7.92413 3.75 9.89851 3.75 12.185C3.75 13.973 4.35148 15.7476 5.37387 17.1162C6.09162 18.077 7.05006 18.8418 8.10341 19.4233L8.267 19.51L8.28715 19.2891C8.34642 18.7469 8.48097 18.1561 8.72199 17.566L8.746 17.509L8.5848 17.4531C6.82942 16.7975 5.57336 15.0586 5.48588 13.0108L5.481 12.782C5.481 11.9962 5.7209 11.2413 6.16607 10.5612L6.297 10.371L6.34226 8.68215C6.36765 7.72339 7.28474 7.05679 8.1897 7.29895L8.31294 7.33766L10.182 8.013L10.3524 7.97567C10.7558 7.89571 11.167 7.84475 11.5828 7.82427L12 7.814C12.6188 7.814 13.2293 7.88172 13.8209 8.01259L13.817 8.014L14.0495 8.06654C13.9736 8.04751 13.8974 8.02952 13.8209 8.01259L15.687 7.33867C16.589 7.01262 17.5443 7.62335 17.6488 8.55399L17.6577 8.68282L17.702 10.372L17.8341 10.5621C18.2345 11.1744 18.4689 11.8468 18.5118 12.5475L18.519 12.782C18.519 14.9283 17.2356 16.7732 15.4152 17.4531L15.247 17.511L15.3301 17.7193C15.5506 18.3068 15.6697 18.8755 15.7203 19.372L15.731 19.511L15.8966 19.4233C16.8542 18.8947 17.7333 18.2146 18.4245 17.3733L18.6261 17.1161C19.6488 15.7473 20.25 13.9737 20.25 12.185C20.25 9.89851 19.4416 7.92413 18.0377 6.40658Z" fill="currentColor"/>
</svg>
