<svg width="22" height="22" viewBox="0 0 22 22" fill="none" xmlns="http://www.w3.org/2000/svg">
<path fill-rule="evenodd" clip-rule="evenodd" d="M16.2931 7.81818C17.3219 7.13414 18 5.96443 18 4.63636C18 2.52763 16.2905 0.818176 14.1818 0.818176H7.81818C5.70946 0.818176 4 2.52763 4 4.63636C4 5.96443 4.67805 7.13414 5.70686 7.81818C4.67805 8.50222 4 9.67192 4 11C4 12.3281 4.67805 13.4978 5.70686 14.1818C4.67805 14.8659 4 16.0356 4 17.3636C4 19.4724 5.70946 21.1818 7.81818 21.1818C9.92691 21.1818 11.6364 19.4724 11.6364 17.3636V13.8459C12.3119 14.4505 13.2039 14.8182 14.1818 14.8182C16.2905 14.8182 18 13.1087 18 11C18 9.67192 17.3219 8.50222 16.2931 7.81818ZM7.81818 8.45454C6.41237 8.45454 5.27273 9.59418 5.27273 11C5.27273 12.4058 6.41237 13.5454 7.81818 13.5454H10.3636L10.3636 8.45454H7.81818ZM14.1818 7.18181C15.5876 7.18181 16.7273 6.04217 16.7273 4.63636C16.7273 3.23054 15.5876 2.0909 14.1818 2.0909H11.6364V7.18181H14.1818ZM14.1818 8.45454H14.1802C12.7755 8.45539 11.637 9.5941 11.6364 10.9989L11.6364 11.0011C11.637 12.4064 12.7764 13.5454 14.1818 13.5454C15.5876 13.5454 16.7273 12.4058 16.7273 11C16.7273 9.59418 15.5876 8.45454 14.1818 8.45454ZM5.27273 17.3636C5.27273 15.9578 6.41237 14.8182 7.81818 14.8182L10.3636 14.8182V17.3636C10.3636 18.7694 9.224 19.9091 7.81818 19.9091C6.41237 19.9091 5.27273 18.7694 5.27273 17.3636ZM10.3636 7.18181H7.81818C6.41237 7.18181 5.27273 6.04217 5.27273 4.63636C5.27273 3.23054 6.41237 2.0909 7.81818 2.0909H10.3636V7.18181Z" fill="currentColor" fill-opacity="0.9"/>
</svg>
