<svg width="24" height="24" viewBox="0 0 24 24" fill="none" xmlns="http://www.w3.org/2000/svg">
<path d="M11.2 13.07C11.6142 13.07 11.95 13.4058 11.95 13.82C11.95 14.1997 11.6679 14.5135 11.3018 14.5632L11.2 14.57H6.51001C6.0958 14.57 5.76001 14.2342 5.76001 13.82C5.76001 13.4403 6.04216 13.1265 6.40824 13.0768L6.51001 13.07H11.2Z" fill="currentColor"/>
<path d="M8.17135 8.08293C8.33542 7.70259 8.77674 7.52727 9.15708 7.69134C9.50572 7.84173 9.68209 8.2251 9.58269 8.58091L9.54867 8.67707L6.68867 15.3071C6.5246 15.6874 6.08328 15.8627 5.70294 15.6987C5.3543 15.5483 5.17793 15.1649 5.27733 14.8091L5.31135 14.7129L8.17135 8.08293Z" fill="currentColor"/>
<path d="M8.5638 7.69096C8.91263 7.54101 9.31235 7.67631 9.50255 7.99301L9.54903 8.08381L12.399 14.7138C12.5626 15.0944 12.3867 15.5355 12.0062 15.699C11.6574 15.849 11.2576 15.7137 11.0674 15.397L11.021 15.3062L8.17096 8.67619C8.00738 8.29565 8.18326 7.85454 8.5638 7.69096Z" fill="currentColor"/>
<path fill-rule="evenodd" clip-rule="evenodd" d="M7 2.25H17C19.6232 2.25 21.75 4.37679 21.75 7V17C21.75 19.6232 19.6232 21.75 17 21.75H7C4.37679 21.75 2.25 19.6232 2.25 17V7C2.25 4.37679 4.37679 2.25 7 2.25ZM17 3.75H7C5.20521 3.75 3.75 5.20521 3.75 7V17C3.75 18.7948 5.20521 20.25 7 20.25H17C18.7948 20.25 20.25 18.7948 20.25 17V7C20.25 5.20521 18.7948 3.75 17 3.75Z" fill="currentColor"/>
<path d="M17.75 10.25C18.1297 10.25 18.4435 10.5322 18.4932 10.8982L18.5 11V15C18.5 15.4142 18.1642 15.75 17.75 15.75C17.3703 15.75 17.0565 15.4678 17.0068 15.1018L17 15V11C17 10.5858 17.3358 10.25 17.75 10.25Z" fill="currentColor"/>
<path fill-rule="evenodd" clip-rule="evenodd" d="M17.6913 11.0487C16.6131 9.97043 14.8649 9.97043 13.7867 11.0487C12.7085 12.1269 12.7085 13.8751 13.7867 14.9533C14.8649 16.0315 16.6131 16.0315 17.6913 14.9533C18.7696 13.8751 18.7696 12.1269 17.6913 11.0487ZM14.8474 12.1093C15.307 11.6497 16.0331 11.6191 16.5283 12.0174L16.6307 12.1093L16.7226 12.2117C17.1209 12.7069 17.0903 13.433 16.6307 13.8926C16.1382 14.3851 15.3398 14.3851 14.8474 13.8926C14.3549 13.4002 14.3549 12.6018 14.8474 12.1093Z" fill="currentColor"/>
</svg>
