<svg width="24" height="24" viewBox="0 0 24 24" fill="none" xmlns="http://www.w3.org/2000/svg">
<path d="M18.9998 2.25C19.7293 2.2498 20.4289 2.53949 20.9447 3.0553C21.4605 3.5711 21.7502 4.27075 21.75 5.00021C21.7499 5.41442 21.414 5.75011 20.9998 5.75C20.6201 5.7499 20.3064 5.46766 20.2568 5.10157L20.25 4.99979C20.2501 4.6683 20.1184 4.35036 19.884 4.11596C19.6831 3.91504 19.4208 3.78962 19.1412 3.75794L19.0002 3.75C18.586 3.75011 18.2501 3.41442 18.25 3.00021C18.2499 2.58599 18.5856 2.25011 18.9998 2.25Z" fill="currentColor"/>
<path d="M21 11.25C21.3797 11.25 21.6935 11.5322 21.7432 11.8982L21.75 12V13C21.75 13.4142 21.4142 13.75 21 13.75C20.6203 13.75 20.3065 13.4678 20.2568 13.1018L20.25 13V12C20.25 11.5858 20.5858 11.25 21 11.25Z" fill="currentColor"/>
<path d="M21 7.25C21.3797 7.25 21.6935 7.53215 21.7432 7.89823L21.75 8V9C21.75 9.41421 21.4142 9.75 21 9.75C20.6203 9.75 20.3065 9.46785 20.2568 9.10177L20.25 9V8C20.25 7.58579 20.5858 7.25 21 7.25Z" fill="currentColor"/>
<path d="M20.9998 15.25C21.414 15.2499 21.7499 15.5856 21.75 15.9998C21.7502 16.7293 21.4605 17.4289 20.9447 17.9447C20.4289 18.4605 19.7293 18.7502 18.9998 18.75C18.5856 18.7499 18.2499 18.414 18.25 17.9998C18.2501 17.6201 18.5323 17.3064 18.8984 17.2568L19.0002 17.25C19.3317 17.2501 19.6496 17.1184 19.884 16.884C20.085 16.6831 20.2104 16.4208 20.2421 16.1412L20.25 16.0002C20.2499 15.586 20.5856 15.2501 20.9998 15.25Z" fill="currentColor"/>
<path d="M8.00021 2.25C8.41442 2.25011 8.75011 2.58599 8.75 3.00021C8.7499 3.3799 8.46766 3.69362 8.10157 3.74318L7.99979 3.75C7.6683 3.74991 7.35036 3.88155 7.11596 4.11596C6.91504 4.31687 6.78962 4.57916 6.75794 4.85876L6.75 4.99979C6.75011 5.41401 6.41442 5.74989 6.00021 5.75C5.58599 5.75011 5.25011 5.41442 5.25 5.00021C5.2498 4.27074 5.53949 3.5711 6.0553 3.0553C6.5711 2.53949 7.27074 2.2498 8.00021 2.25Z" fill="currentColor"/>
<path d="M16 2.25C16.4142 2.25 16.75 2.58579 16.75 3C16.75 3.3797 16.4678 3.69349 16.1018 3.74315L16 3.75H15C14.5858 3.75 14.25 3.41421 14.25 3C14.25 2.6203 14.5322 2.30651 14.8982 2.25685L15 2.25H16Z" fill="currentColor"/>
<path d="M12 2.25C12.4142 2.25 12.75 2.58579 12.75 3C12.75 3.3797 12.4678 3.69349 12.1018 3.74315L12 3.75H11C10.5858 3.75 10.25 3.41421 10.25 3C10.25 2.6203 10.5322 2.30651 10.8982 2.25685L11 2.25H12Z" fill="currentColor"/>
<path fill-rule="evenodd" clip-rule="evenodd" d="M5 7.25H13.9998C14.7293 7.2498 15.4289 7.53949 15.9447 8.0553C16.4605 8.5711 16.7502 9.27075 16.75 10V18.9998C16.7502 19.7293 16.4605 20.4289 15.9447 20.9447C15.4289 21.4605 14.7293 21.7502 14 21.75H5.00021C4.27074 21.7502 3.5711 21.4605 3.0553 20.9447C2.53949 20.4289 2.2498 19.7293 2.25 19V10.0002C2.2498 9.27075 2.53949 8.5711 3.0553 8.0553C3.5711 7.53949 4.27074 7.2498 5 7.25ZM14.0002 8.75H4.99979C4.6683 8.74991 4.35036 8.88155 4.11596 9.11596C3.88155 9.35036 3.74991 9.6683 3.75 10L3.75 19.0002C3.74991 19.3317 3.88155 19.6496 4.11596 19.884C4.35036 20.1184 4.6683 20.2501 5 20.25H14.0002C14.3317 20.2501 14.6496 20.1184 14.884 19.884C15.1184 19.6496 15.2501 19.3317 15.25 19V9.99979C15.2501 9.6683 15.1184 9.35036 14.884 9.11596C14.6496 8.88155 14.3317 8.74991 14.0002 8.75Z" fill="currentColor"/>
<path d="M13 10.75C13.4142 10.75 13.75 11.0858 13.75 11.5C13.75 11.8797 13.4678 12.1935 13.1018 12.2432L13 12.25H6C5.58579 12.25 5.25 11.9142 5.25 11.5C5.25 11.1203 5.53215 10.8065 5.89823 10.7568L6 10.75H13Z" fill="currentColor"/>
<path d="M9 16.75C9.41421 16.75 9.75 17.0858 9.75 17.5C9.75 17.8797 9.46785 18.1935 9.10177 18.2432L9 18.25H6C5.58579 18.25 5.25 17.9142 5.25 17.5C5.25 17.1203 5.53215 16.8065 5.89823 16.7568L6 16.75H9Z" fill="currentColor"/>
<path d="M13 13.75C13.4142 13.75 13.75 14.0858 13.75 14.5C13.75 14.8797 13.4678 15.1935 13.1018 15.2432L13 15.25H6C5.58579 15.25 5.25 14.9142 5.25 14.5C5.25 14.1203 5.53215 13.8065 5.89823 13.7568L6 13.75H13Z" fill="currentColor"/>
</svg>
