<svg width="24" height="24" viewBox="0 0 24 24" fill="none" xmlns="http://www.w3.org/2000/svg">
<path d="M12 2.25C17.3848 2.25 21.75 6.61523 21.75 12C21.75 17.3848 17.3848 21.75 12 21.75C11.5858 21.75 11.25 21.4142 11.25 21C11.25 20.5858 11.5858 20.25 12 20.25C16.5564 20.25 20.25 16.5563 20.25 12C20.25 7.44365 16.5564 3.75 12 3.75C11.5858 3.75 11.25 3.41421 11.25 3C11.25 2.58579 11.5858 2.25 12 2.25Z" fill="currentColor"/>
<path d="M5.64168 18.4109C5.9074 18.0931 6.3804 18.0509 6.69815 18.3167C7.43586 18.9336 8.27588 19.4166 9.18018 19.7437C9.56968 19.8847 9.7712 20.3147 9.63028 20.7042C9.48935 21.0937 9.05936 21.2952 8.66985 21.1543C7.6009 20.7675 6.60792 20.1966 5.73588 19.4673C5.41813 19.2016 5.37596 18.7286 5.64168 18.4109Z" fill="currentColor"/>
<path d="M8.67043 2.84553C9.06006 2.70493 9.48988 2.9068 9.63049 3.29642C9.77109 3.68604 9.56921 4.11587 9.17959 4.25647C8.27535 4.58278 7.43555 5.06563 6.69862 5.68294C6.38109 5.94892 5.90806 5.90714 5.64208 5.58961C5.37609 5.27208 5.41788 4.79905 5.73541 4.53306C6.60721 3.80278 7.6007 3.23156 8.67043 2.84553Z" fill="currentColor"/>
<path d="M3.56148 7.12503C3.76857 6.7663 4.22725 6.64337 4.58598 6.85046C4.94471 7.05755 5.06764 7.51624 4.86055 7.87497C4.37953 8.70822 4.04858 9.61949 3.8828 10.5672C3.81142 10.9753 3.4228 11.2482 3.01478 11.1768C2.60676 11.1054 2.33386 10.7168 2.40523 10.3088C2.60128 9.18801 2.99264 8.1104 3.56148 7.12503Z" fill="#323232"/>
<path d="M3.01483 12.8222C3.42285 12.7509 3.81146 13.0238 3.8828 13.4318C4.04859 14.3799 4.37955 15.2915 4.86061 16.1251C5.06764 16.4839 4.94464 16.9426 4.58588 17.1496C4.22712 17.3566 3.76845 17.2336 3.56142 16.8749C2.99259 15.8892 2.60125 14.8112 2.40522 13.6902C2.33388 13.2822 2.60681 12.8936 3.01483 12.8222Z" fill="#323232"/>
<path d="M12 7.25C12.3797 7.25 12.6935 7.53215 12.7432 7.89823L12.75 8V16C12.75 16.4142 12.4142 16.75 12 16.75C11.6203 16.75 11.3065 16.4678 11.2569 16.1018L11.25 16V8C11.25 7.58579 11.5858 7.25 12 7.25Z" fill="#323232"/>
<path d="M8.46968 12.4697C8.73595 12.2034 9.15262 12.1792 9.44623 12.3971L9.53034 12.4697L12 14.939L14.4697 12.4697C14.736 12.2034 15.1526 12.1792 15.4462 12.3971L15.5303 12.4697C15.7966 12.7359 15.8208 13.1526 15.603 13.4462L15.5303 13.5303L12.5303 16.5303C12.2641 16.7966 11.8474 16.8208 11.5538 16.6029L11.4697 16.5303L8.46968 13.5303C8.17679 13.2374 8.17679 12.7626 8.46968 12.4697Z" fill="#323232"/>
</svg>
