<svg width="24" height="24" viewBox="0 0 24 24" fill="none" xmlns="http://www.w3.org/2000/svg">
<path d="M9.33301 13.333C10.0692 13.333 10.6666 13.9299 10.667 14.666V18.666L10.6602 18.8027C10.5964 19.4302 10.0972 19.9294 9.46973 19.9932L9.33301 20H5.33301L5.19727 19.9932C4.5248 19.925 4 19.3565 4 18.666V14.666C4.00035 13.93 4.59699 13.3332 5.33301 13.333H9.33301ZM18.666 13.333C19.4022 13.333 19.9996 13.9299 20 14.666V18.666L19.9932 18.8027C19.9294 19.4302 19.4302 19.9294 18.8027 19.9932L18.666 20H14.666L14.5303 19.9932C13.858 19.9249 13.333 19.3564 13.333 18.666V14.666C13.3334 13.9302 13.9302 13.3334 14.666 13.333H18.666ZM14.666 18.666H18.666V14.666H14.666V18.666ZM5.33301 18.666H9.33301V14.666H5.33301V18.666ZM9.33301 4C10.0693 4 10.6668 4.59678 10.667 5.33301V9.33301L10.6602 9.46973C10.5964 10.0972 10.0972 10.5964 9.46973 10.6602L9.33301 10.667H5.33301L5.19727 10.6602C4.52478 10.592 4 10.0235 4 9.33301V5.33301C4.00018 4.59689 4.59689 4.00018 5.33301 4H9.33301ZM18.666 4C19.4023 4 19.9998 4.59678 20 5.33301V9.33301L19.9932 9.46973C19.9294 10.0972 19.4302 10.5964 18.8027 10.6602L18.666 10.667H14.666L14.5303 10.6602C13.8579 10.5919 13.333 10.0234 13.333 9.33301V5.33301C13.3332 4.59699 13.93 4.00035 14.666 4H18.666ZM5.33301 9.33301H9.33301V5.33301H5.33301V9.33301ZM14.666 9.33301H18.666V5.33301H14.666V9.33301Z" fill="black"/>
</svg>
