<svg width="24" height="24" viewBox="0 0 24 24" fill="none" xmlns="http://www.w3.org/2000/svg">
<path d="M18.571 3.25C20.1883 3.25 21.5095 4.51346 21.6018 6.10756L21.607 6.286V10.546L22.5303 11.4697C22.7966 11.7359 22.8208 12.1526 22.6029 12.4462L22.5303 12.5303L21.607 13.453V17.714C21.607 19.331 20.3429 20.6525 18.7493 20.7448L18.571 20.75C18.1568 20.75 17.821 20.4142 17.821 20C17.821 19.6203 18.1031 19.3065 18.4692 19.2568L18.571 19.25C19.372 19.25 20.0301 18.6367 20.1007 17.8538L20.107 17.714V13.143C20.107 12.9839 20.1576 12.83 20.2498 12.7027L20.3267 12.6127L20.939 12L20.3267 11.3873C20.2141 11.2748 20.1411 11.1302 20.1163 10.975L20.107 10.857V6.286C20.107 5.43721 19.4198 4.75 18.571 4.75C18.1568 4.75 17.821 4.41421 17.821 4C17.821 3.58579 18.1568 3.25 18.571 3.25Z" fill="currentColor"/>
<path d="M14.3569 6.61412C14.57 6.25893 15.0307 6.14376 15.3859 6.35687C15.7114 6.55222 15.8354 6.95561 15.6896 7.29507L15.6431 7.38586L9.64311 17.3859C9.43 17.741 8.9693 17.8562 8.61412 17.6431C8.28853 17.4478 8.16462 17.0444 8.31038 16.7049L8.35687 16.6141L14.3569 6.61412Z" fill="currentColor"/>
<path d="M5.429 3.25C5.84321 3.25 6.179 3.58579 6.179 4C6.179 4.41421 5.84321 4.75 5.429 4.75C4.62737 4.75 3.96986 5.36298 3.89927 6.14612L3.893 6.286V10.857C3.893 11.0161 3.84243 11.17 3.75019 11.2973L3.67333 11.3873L3.061 12L3.67333 12.6127C3.78585 12.7252 3.85893 12.8698 3.88366 13.025L3.893 13.143V17.714C3.893 18.5156 4.50598 19.1731 5.28912 19.2437L5.429 19.25C5.84321 19.25 6.179 19.5858 6.179 20C6.179 20.4142 5.84321 20.75 5.429 20.75C3.81169 20.75 2.49046 19.4865 2.39815 17.8924L2.393 17.714V13.454L1.46967 12.5303C1.2034 12.2641 1.1792 11.8474 1.39705 11.5538L1.46967 11.4697L2.393 10.545V6.286C2.393 4.66869 3.65646 3.34746 5.25056 3.25515L5.429 3.25Z" fill="currentColor"/>
</svg>
