<svg width="24" height="24" viewBox="0 0 24 24" fill="none" xmlns="http://www.w3.org/2000/svg">
<path d="M10 5.25C10.3797 5.25 10.6935 5.53215 10.7432 5.89823L10.75 6V7C10.75 7.41421 10.4142 7.75 10 7.75C9.6203 7.75 9.30651 7.46785 9.25685 7.10177L9.25 7V6C9.25 5.58579 9.58579 5.25 10 5.25Z" fill="currentColor"/>
<path d="M10 9.25C10.3797 9.25 10.6935 9.53215 10.7432 9.89823L10.75 10V11C10.75 11.4142 10.4142 11.75 10 11.75C9.6203 11.75 9.30651 11.4678 9.25685 11.1018L9.25 11V10C9.25 9.58579 9.58579 9.25 10 9.25Z" fill="currentColor"/>
<path d="M10 13.25C11.2426 13.25 12.25 14.2574 12.25 15.5V16.5C12.25 17.7426 11.2426 18.75 10 18.75C8.75736 18.75 7.75 17.7426 7.75 16.5V15.5C7.75 14.2574 8.75736 13.25 10 13.25ZM10 14.75C9.58579 14.75 9.25 15.0858 9.25 15.5V16.5C9.25 16.9142 9.58579 17.25 10 17.25C10.4142 17.25 10.75 16.9142 10.75 16.5V15.5C10.75 15.0858 10.4142 14.75 10 14.75Z" fill="currentColor"/>
<path d="M14.6279 2.25C15.6225 2.25 16.577 2.64537 17.2803 3.34863L19.6514 5.71973C20.3546 6.42299 20.75 7.37751 20.75 8.37207V18.5C20.75 20.2949 19.2949 21.75 17.5 21.75H7C5.48122 21.75 4.25 20.5188 4.25 19V5.5C4.25 3.70507 5.70507 2.25 7.5 2.25H14.6279ZM7.5 3.75C6.5335 3.75 5.75 4.5335 5.75 5.5V19C5.75 19.6904 6.30964 20.25 7 20.25H17.5C18.4665 20.25 19.25 19.4665 19.25 18.5V8.37207C19.25 7.77533 19.0128 7.20223 18.5908 6.78027L16.2197 4.40918C15.7978 3.98722 15.2247 3.75 14.6279 3.75H7.5Z" fill="currentColor"/>
</svg>
