<svg width="24" height="24" viewBox="0 0 24 24" fill="none" xmlns="http://www.w3.org/2000/svg">
<path fill-rule="evenodd" clip-rule="evenodd" d="M16.5372 7.46271C17.6027 8.52819 18.216 9.87756 18.3749 11.2674C18.5584 12.8713 17.128 13.8334 15.8727 13.8334H14.75C14.2437 13.8334 13.8333 14.2438 13.8333 14.7501V15.8727C13.8333 17.128 12.8713 18.5584 11.2673 18.3748C9.8775 18.2159 8.52817 17.6027 7.46271 16.5372C4.95685 14.0314 4.95685 9.96858 7.46271 7.46271C9.96858 4.95685 14.0314 4.95685 16.5372 7.46271ZM17.4641 11.3715C17.5659 12.2609 16.7679 12.9167 15.8727 12.9167H14.75C13.7374 12.9167 12.9166 13.7375 12.9166 14.7501V15.8727C12.9166 16.7679 12.2609 17.5659 11.3714 17.4641C10.18 17.3279 9.02469 16.8029 8.1109 15.889C5.96301 13.7412 5.96301 10.2588 8.1109 8.1109C10.2588 5.96301 13.7412 5.96301 15.889 8.1109C16.8029 9.02471 17.3279 10.1801 17.4641 11.3715ZM12.9166 8.33338C12.9166 8.83964 12.5063 9.25005 12 9.25005C11.4937 9.25005 11.0833 8.83964 11.0833 8.33338C11.0833 7.82712 11.4937 7.41671 12 7.41671C12.5063 7.41671 12.9166 7.82712 12.9166 8.33338ZM10.044 10.6252C10.2971 10.1867 10.1469 9.62614 9.70848 9.37301C9.27005 9.11988 8.70942 9.2701 8.45629 9.70854C8.20316 10.147 8.35338 10.7076 8.79181 10.9608C9.23025 11.2138 9.79087 11.0636 10.044 10.6252ZM15.2085 10.9608C14.7701 11.2138 14.2094 11.0636 13.9563 10.6252C13.7031 10.1867 13.8534 9.62614 14.2918 9.37301C14.7303 9.11988 15.2909 9.2701 15.544 9.70854C15.7971 10.147 15.6469 10.7076 15.2085 10.9608ZM8.45629 14.2918C8.70942 14.7303 9.27005 14.8805 9.70848 14.6274C10.1469 14.3742 10.2971 13.8136 10.044 13.3752C9.79087 12.9367 9.23025 12.7866 8.79181 13.0397C8.35338 13.2928 8.20316 13.8534 8.45629 14.2918Z" fill="black" fill-opacity="0.9"/>
</svg>
