<svg width="24" height="24" viewBox="0 0 24 24" fill="none" xmlns="http://www.w3.org/2000/svg">
<path fill-rule="evenodd" clip-rule="evenodd" d="M10.1666 8.33335H13.8333C15.8583 8.33335 17.5 9.97498 17.5 12C17.5 14.025 15.8583 15.6667 13.8333 15.6667H10.1666C8.1416 15.6667 6.49998 14.025 6.49998 12C6.49998 9.97498 8.1416 8.33335 10.1666 8.33335ZM5.58331 12C5.58331 9.46871 7.63534 7.41669 10.1666 7.41669H13.8333C16.3646 7.41669 18.4166 9.46871 18.4166 12C18.4166 14.5313 16.3646 16.5834 13.8333 16.5834H10.1666C7.63534 16.5834 5.58331 14.5313 5.58331 12ZM10.1666 13.8334C9.15412 13.8334 8.33331 13.0126 8.33331 12C8.33331 10.9875 9.15412 10.1667 10.1666 10.1667C11.1792 10.1667 12 10.9875 12 12C12 13.0126 11.1792 13.8334 10.1666 13.8334ZM7.41665 12C7.41665 10.4812 8.64786 9.25002 10.1666 9.25002C11.6855 9.25002 12.9166 10.4812 12.9166 12C12.9166 13.5188 11.6855 14.75 10.1666 14.75C8.64786 14.75 7.41665 13.5188 7.41665 12Z" fill="black" fill-opacity="0.9"/>
</svg>
