<svg width="24" height="24" viewBox="0 0 24 24" fill="none" xmlns="http://www.w3.org/2000/svg">
<path fill-rule="evenodd" clip-rule="evenodd" d="M8.33333 6.5C7.32081 6.5 6.5 7.32081 6.5 8.33333V15.6667C6.5 16.6792 7.32081 17.5 8.33333 17.5H15.6667C16.6792 17.5 17.5 16.6792 17.5 15.6667V8.33333C17.5 7.32081 16.6792 6.5 15.6667 6.5H8.33333ZM7.41667 8.33333C7.41667 7.82708 7.82707 7.41667 8.33333 7.41667H15.6667C16.1729 7.41667 16.5833 7.82708 16.5833 8.33333V15.6667C16.5833 16.1729 16.1729 16.5833 15.6667 16.5833H8.33333C7.82707 16.5833 7.41667 16.1729 7.41667 15.6667V8.33333ZM11.5394 9.75394C11.5646 9.50207 11.3808 9.27746 11.129 9.25227C10.8771 9.22709 10.6525 9.41086 10.6273 9.66273L10.5769 10.1667H9.70833C9.45521 10.1667 9.25 10.3719 9.25 10.625C9.25 10.8781 9.45521 11.0833 9.70833 11.0833H10.4852L10.3019 12.9167H9.70833C9.45521 12.9167 9.25 13.1219 9.25 13.375C9.25 13.6281 9.45521 13.8333 9.70833 13.8333H10.2102L10.169 14.246C10.1438 14.4979 10.3275 14.7225 10.5794 14.7477C10.8313 14.7729 11.0558 14.5891 11.081 14.3373L11.1315 13.8333H12.5019L12.4606 14.246C12.4354 14.4979 12.6192 14.7225 12.871 14.7477C13.1229 14.7729 13.3475 14.5891 13.3727 14.3373L13.4231 13.8333H14.2917C14.5448 13.8333 14.75 13.6281 14.75 13.375C14.75 13.1219 14.5448 12.9167 14.2917 12.9167H13.5148L13.6981 11.0833H14.2917C14.5448 11.0833 14.75 10.8781 14.75 10.625C14.75 10.3719 14.5448 10.1667 14.2917 10.1667H13.7898L13.831 9.75394C13.8563 9.50207 13.6725 9.27746 13.4207 9.25227C13.1688 9.22709 12.9442 9.41086 12.919 9.66273L12.8685 10.1667H11.4981L11.5394 9.75394ZM11.2231 12.9167L11.4065 11.0833H12.7769L12.5935 12.9167H11.2231Z" fill="black" fill-opacity="0.9"/>
</svg>
