<svg width="24" height="24" viewBox="0 0 24 24" fill="none" xmlns="http://www.w3.org/2000/svg">
<path fill-rule="evenodd" clip-rule="evenodd" d="M8.33333 7.41667H15.6667C16.1729 7.41667 16.5833 7.82707 16.5833 8.33333V15.6667C16.5833 16.1729 16.1729 16.5833 15.6667 16.5833H8.33333C7.82707 16.5833 7.41667 16.1729 7.41667 15.6667V8.33333C7.41667 7.82707 7.82707 7.41667 8.33333 7.41667ZM6.5 8.33333C6.5 7.32081 7.32081 6.5 8.33333 6.5H15.6667C16.6792 6.5 17.5 7.32081 17.5 8.33333V15.6667C17.5 16.6792 16.6792 17.5 15.6667 17.5H8.33333C7.32081 17.5 6.5 16.6792 6.5 15.6667V8.33333ZM9.70833 9.25C9.45521 9.25 9.25 9.45521 9.25 9.70833V10.625C9.25 10.8781 9.45521 11.0833 9.70833 11.0833C9.96146 11.0833 10.1667 10.8781 10.1667 10.625V10.1667H11.5417V13.8333H11.0833C10.8302 13.8333 10.625 14.0386 10.625 14.2917C10.625 14.5448 10.8302 14.75 11.0833 14.75H12H12.9167C13.1698 14.75 13.375 14.5448 13.375 14.2917C13.375 14.0386 13.1698 13.8333 12.9167 13.8333H12.4583V10.1667H13.8333V10.625C13.8333 10.8781 14.0386 11.0833 14.2917 11.0833C14.5448 11.0833 14.75 10.8781 14.75 10.625V9.70833C14.75 9.45521 14.5448 9.25 14.2917 9.25H12H9.70833Z" fill="black" fill-opacity="0.9"/>
</svg>
